<?xml version="1.0" encoding="UTF-8"?>
<svg id="_reason_2" data-name="reason 2" xmlns="http://www.w3.org/2000/svg" xmlns:xlink="http://www.w3.org/1999/xlink" viewBox="0 0 193.53 193.53">
  <defs>
    <style>
      .cls-1 {
        fill: url(#reason_gradi_266);
      }

      .cls-1, .cls-2, .cls-3 {
        stroke-width: 0px;
      }

      .cls-2 {
        fill: url(#reason_gradi_264);
      }

      .cls-3 {
        fill: url(#reason_gradi_6);
      }
    </style>
    <linearGradient id="reason_gradi_6" data-name="reason_gradi 6" x1="110.47" y1="270.59" x2="88.41" y2="-9.25" gradientUnits="userSpaceOnUse">
      <stop offset="0" stop-color="#00c0ca"/>
      <stop offset=".3" stop-color="#02c5cb"/>
      <stop offset=".35" stop-color="#03c7cc"/>
      <stop offset=".61" stop-color="#07d2ce"/>
      <stop offset="1" stop-color="#10ebd4"/>
    </linearGradient>
    <linearGradient id="reason_gradi_266" data-name="reason_gradi 266" x1="61.04" y1="48.53" x2="131.72" y2="141.37" gradientUnits="userSpaceOnUse">
      <stop offset=".17" stop-color="#fff"/>
      <stop offset=".6" stop-color="#f9f9f9"/>
      <stop offset="1" stop-color="#efefef"/>
    </linearGradient>
    <linearGradient id="reason_gradi_264" data-name="reason_gradi 264" x1="91.52" y1="25.32" x2="162.2" y2="118.16" gradientTransform="translate(29.06 -32.67) rotate(13.28)" gradientUnits="userSpaceOnUse">
      <stop offset="0" stop-color="#fff"/>
      <stop offset=".52" stop-color="#f9f9f9"/>
      <stop offset="1" stop-color="#efefef"/>
    </linearGradient>
  </defs>
  <g id="_reason_1-2" data-name="reason 1">
    <g>
      <circle class="cls-3" cx="96.77" cy="96.77" r="96.77"/>
      <g>
        <path class="cls-1" d="M158.28,79.97l-.39-2.84c-1.89-13.77-13.58-21.06-29.2-18.91-15.61,2.14-24.82,12.3-22.93,26.07l2.8,20.38c.12,4.35-2.22,7.95-6.16,9.49-6.35,2.49-13.33-1.98-14.25-8.73l-2.94-21.44c-.81-7.08-4.54-10.21-9.48-12.26,0,0,0,0,0-.02,0,0-.02,0-.03,0-4.91-2.01-8.34.64-7.62,5.9l4.34,31.59c.28,4.44-1.96,8.14-5.85,9.8-6.39,2.72-13.58-1.71-14.53-8.58l-2.95-21.48c-1.17-8.52-9.03-14.48-17.55-13.31-.28.04-.48.31-.44.59l5.29,38.51c1.89,13.77,13.5,21.07,29.11,18.92,3.69-.51,7.01-1.46,9.93-2.81,4.98-2.31,10.48-3.06,15.91-2.18,3.15.51,6.61.54,10.28.03,8.81-1.21,15.6-4.98,19.51-10.5,2.94-3.29,4.48-7.79,3.83-12.5l-.15-1.1c-.04-.65-.08-1.31-.18-1.98l-2.01-14.64c-.01-.09-.08-.15-.13-.22l-.49-3.54c-.92-6.7,4.5-12.82,11.24-12.22,4.68.42,8.21,3.77,8.89,8.75l-.23-1.7c.31,2.28,1.1,4.37,2.26,6.2,4.4,6.97,15.24,2.89,14.12-5.27Z"/>
        <circle class="cls-2" cx="154.81" cy="108.45" r="8.1" transform="translate(-20.78 38.47) rotate(-13.28)"/>
      </g>
    </g>
  </g>
</svg>